G75*
%MOIN*%
%OFA0B0*%
%FSLAX25Y25*%
%IPPOS*%
%LPD*%
%AMOC8*
5,1,8,0,0,1.08239X$1,22.5*
%
%ADD10C,0.07400*%
%ADD11C,0.10000*%
%ADD12C,0.07800*%
%ADD13C,0.06600*%
%ADD14C,0.08600*%
%ADD15C,0.04000*%
D10*
X0037667Y0076256D03*
X0037667Y0086256D03*
X0162667Y0086256D03*
X0162667Y0076256D03*
D11*
X0122667Y0086256D03*
X0122667Y0126256D03*
X0122667Y0176256D03*
X0122667Y0216256D03*
X0077667Y0216256D03*
X0077667Y0176256D03*
X0077667Y0126256D03*
X0077667Y0086256D03*
D12*
X0082967Y0030156D02*
X0082967Y0022356D01*
X0102667Y0022356D02*
X0102667Y0030156D01*
X0122367Y0030156D02*
X0122367Y0022356D01*
X0130467Y0257356D02*
X0130467Y0265156D01*
X0150167Y0265156D02*
X0150167Y0257356D01*
X0169867Y0257356D02*
X0169867Y0265156D01*
X0110067Y0265156D02*
X0110067Y0257356D01*
X0090267Y0257356D02*
X0090267Y0265156D01*
D13*
X0060967Y0185256D02*
X0054367Y0185256D01*
X0054367Y0176256D02*
X0060967Y0176256D01*
X0060967Y0167256D02*
X0054367Y0167256D01*
X0054367Y0135256D02*
X0060967Y0135256D01*
X0060967Y0126256D02*
X0054367Y0126256D01*
X0054367Y0117256D02*
X0060967Y0117256D01*
X0139367Y0117256D02*
X0145967Y0117256D01*
X0145967Y0126256D02*
X0139367Y0126256D01*
X0139367Y0135256D02*
X0145967Y0135256D01*
X0145967Y0167256D02*
X0139367Y0167256D01*
X0139367Y0176256D02*
X0145967Y0176256D01*
X0145967Y0185256D02*
X0139367Y0185256D01*
D14*
X0137667Y0151256D03*
X0162667Y0136256D03*
X0162667Y0106256D03*
X0162667Y0056256D03*
X0162667Y0026256D03*
X0107667Y0151256D03*
X0092667Y0151256D03*
X0062667Y0151256D03*
X0037667Y0136256D03*
X0037667Y0106256D03*
X0037667Y0056256D03*
X0037667Y0026256D03*
D15*
X0027667Y0021256D02*
X0032667Y0016256D01*
X0057667Y0016256D01*
X0067667Y0026256D01*
X0082967Y0026256D01*
X0102667Y0026256D02*
X0122667Y0006256D01*
X0172667Y0006256D01*
X0182667Y0016256D01*
X0182667Y0201256D01*
X0167667Y0216256D01*
X0167667Y0259056D01*
X0169867Y0261256D01*
X0152667Y0258756D02*
X0150167Y0261256D01*
X0152667Y0258756D02*
X0152667Y0211256D01*
X0172667Y0191256D01*
X0172667Y0126256D01*
X0163667Y0117256D01*
X0142667Y0117256D01*
X0142667Y0106256D01*
X0122667Y0086256D01*
X0147667Y0061256D01*
X0147667Y0031256D01*
X0152667Y0026256D01*
X0162667Y0026256D01*
X0172667Y0021256D02*
X0167667Y0016256D01*
X0147367Y0016256D01*
X0137367Y0026256D01*
X0122367Y0026256D01*
X0162667Y0056256D02*
X0162667Y0076256D01*
X0162667Y0086256D02*
X0167667Y0086256D01*
X0172667Y0081256D01*
X0172667Y0021256D01*
X0162667Y0086256D02*
X0162667Y0106256D01*
X0142667Y0126256D02*
X0122667Y0126256D01*
X0122667Y0136256D01*
X0097667Y0136256D01*
X0092667Y0141256D01*
X0092667Y0151256D01*
X0107667Y0161256D02*
X0102667Y0166256D01*
X0077667Y0166256D01*
X0077667Y0176256D01*
X0057667Y0176256D01*
X0057667Y0185256D02*
X0057667Y0196256D01*
X0077667Y0216256D01*
X0077667Y0271256D01*
X0082667Y0276256D01*
X0122667Y0276256D01*
X0132667Y0266256D01*
X0132667Y0263456D01*
X0130467Y0261256D01*
X0130167Y0260956D01*
X0130167Y0248756D01*
X0122667Y0241256D01*
X0122667Y0216256D01*
X0142667Y0196256D01*
X0142667Y0185256D01*
X0142667Y0176256D02*
X0122667Y0176256D01*
X0122667Y0136256D01*
X0107667Y0151256D02*
X0107667Y0161256D01*
X0122667Y0176256D02*
X0110067Y0188856D01*
X0110067Y0261256D01*
X0090267Y0261256D02*
X0090267Y0188856D01*
X0077667Y0176256D01*
X0077667Y0166256D02*
X0077667Y0126256D01*
X0057667Y0126256D01*
X0057667Y0135256D02*
X0056667Y0136256D01*
X0037667Y0136256D01*
X0057667Y0117256D02*
X0057667Y0106256D01*
X0077667Y0086256D01*
X0052667Y0061256D01*
X0052667Y0031256D01*
X0047667Y0026256D01*
X0037667Y0026256D01*
X0027667Y0021256D02*
X0027667Y0081256D01*
X0032667Y0086256D01*
X0037667Y0086256D01*
X0037667Y0106256D01*
X0037667Y0076256D02*
X0037667Y0056256D01*
X0077667Y0086256D02*
X0122667Y0086256D01*
X0142667Y0135256D02*
X0161667Y0135256D01*
X0162667Y0136256D01*
X0142667Y0156256D02*
X0137667Y0151256D01*
X0142667Y0156256D02*
X0142667Y0167256D01*
X0062667Y0151256D02*
X0057667Y0156256D01*
X0057667Y0167256D01*
M02*
