G75*
%MOIN*%
%OFA0B0*%
%FSLAX25Y25*%
%IPPOS*%
%LPD*%
%AMOC8*
5,1,8,0,0,1.08239X$1,22.5*
%
%ADD10C,0.00000*%
%ADD11C,0.00512*%
%ADD12C,0.00600*%
%ADD13C,0.00800*%
%ADD14C,0.03400*%
%ADD15C,0.00500*%
%ADD16R,0.07000X0.05000*%
%ADD17R,0.08500X0.03000*%
D10*
X0022667Y0001256D02*
X0022667Y0279957D01*
X0187588Y0279957D01*
X0187588Y0001256D01*
X0022667Y0001256D01*
X0011167Y0126256D02*
X0011169Y0126417D01*
X0011175Y0126577D01*
X0011185Y0126738D01*
X0011199Y0126898D01*
X0011217Y0127058D01*
X0011238Y0127217D01*
X0011264Y0127376D01*
X0011294Y0127534D01*
X0011327Y0127691D01*
X0011365Y0127848D01*
X0011406Y0128003D01*
X0011451Y0128157D01*
X0011500Y0128310D01*
X0011553Y0128462D01*
X0011609Y0128613D01*
X0011670Y0128762D01*
X0011733Y0128910D01*
X0011801Y0129056D01*
X0011872Y0129200D01*
X0011946Y0129342D01*
X0012024Y0129483D01*
X0012106Y0129621D01*
X0012191Y0129758D01*
X0012279Y0129892D01*
X0012371Y0130024D01*
X0012466Y0130154D01*
X0012564Y0130282D01*
X0012665Y0130407D01*
X0012769Y0130529D01*
X0012876Y0130649D01*
X0012986Y0130766D01*
X0013099Y0130881D01*
X0013215Y0130992D01*
X0013334Y0131101D01*
X0013455Y0131206D01*
X0013579Y0131309D01*
X0013705Y0131409D01*
X0013833Y0131505D01*
X0013964Y0131598D01*
X0014098Y0131688D01*
X0014233Y0131775D01*
X0014371Y0131858D01*
X0014510Y0131938D01*
X0014652Y0132014D01*
X0014795Y0132087D01*
X0014940Y0132156D01*
X0015087Y0132222D01*
X0015235Y0132284D01*
X0015385Y0132342D01*
X0015536Y0132397D01*
X0015689Y0132448D01*
X0015843Y0132495D01*
X0015998Y0132538D01*
X0016154Y0132577D01*
X0016310Y0132613D01*
X0016468Y0132644D01*
X0016626Y0132672D01*
X0016785Y0132696D01*
X0016945Y0132716D01*
X0017105Y0132732D01*
X0017265Y0132744D01*
X0017426Y0132752D01*
X0017587Y0132756D01*
X0017747Y0132756D01*
X0017908Y0132752D01*
X0018069Y0132744D01*
X0018229Y0132732D01*
X0018389Y0132716D01*
X0018549Y0132696D01*
X0018708Y0132672D01*
X0018866Y0132644D01*
X0019024Y0132613D01*
X0019180Y0132577D01*
X0019336Y0132538D01*
X0019491Y0132495D01*
X0019645Y0132448D01*
X0019798Y0132397D01*
X0019949Y0132342D01*
X0020099Y0132284D01*
X0020247Y0132222D01*
X0020394Y0132156D01*
X0020539Y0132087D01*
X0020682Y0132014D01*
X0020824Y0131938D01*
X0020963Y0131858D01*
X0021101Y0131775D01*
X0021236Y0131688D01*
X0021370Y0131598D01*
X0021501Y0131505D01*
X0021629Y0131409D01*
X0021755Y0131309D01*
X0021879Y0131206D01*
X0022000Y0131101D01*
X0022119Y0130992D01*
X0022235Y0130881D01*
X0022348Y0130766D01*
X0022458Y0130649D01*
X0022565Y0130529D01*
X0022669Y0130407D01*
X0022770Y0130282D01*
X0022868Y0130154D01*
X0022963Y0130024D01*
X0023055Y0129892D01*
X0023143Y0129758D01*
X0023228Y0129621D01*
X0023310Y0129483D01*
X0023388Y0129342D01*
X0023462Y0129200D01*
X0023533Y0129056D01*
X0023601Y0128910D01*
X0023664Y0128762D01*
X0023725Y0128613D01*
X0023781Y0128462D01*
X0023834Y0128310D01*
X0023883Y0128157D01*
X0023928Y0128003D01*
X0023969Y0127848D01*
X0024007Y0127691D01*
X0024040Y0127534D01*
X0024070Y0127376D01*
X0024096Y0127217D01*
X0024117Y0127058D01*
X0024135Y0126898D01*
X0024149Y0126738D01*
X0024159Y0126577D01*
X0024165Y0126417D01*
X0024167Y0126256D01*
X0024165Y0126095D01*
X0024159Y0125935D01*
X0024149Y0125774D01*
X0024135Y0125614D01*
X0024117Y0125454D01*
X0024096Y0125295D01*
X0024070Y0125136D01*
X0024040Y0124978D01*
X0024007Y0124821D01*
X0023969Y0124664D01*
X0023928Y0124509D01*
X0023883Y0124355D01*
X0023834Y0124202D01*
X0023781Y0124050D01*
X0023725Y0123899D01*
X0023664Y0123750D01*
X0023601Y0123602D01*
X0023533Y0123456D01*
X0023462Y0123312D01*
X0023388Y0123170D01*
X0023310Y0123029D01*
X0023228Y0122891D01*
X0023143Y0122754D01*
X0023055Y0122620D01*
X0022963Y0122488D01*
X0022868Y0122358D01*
X0022770Y0122230D01*
X0022669Y0122105D01*
X0022565Y0121983D01*
X0022458Y0121863D01*
X0022348Y0121746D01*
X0022235Y0121631D01*
X0022119Y0121520D01*
X0022000Y0121411D01*
X0021879Y0121306D01*
X0021755Y0121203D01*
X0021629Y0121103D01*
X0021501Y0121007D01*
X0021370Y0120914D01*
X0021236Y0120824D01*
X0021101Y0120737D01*
X0020963Y0120654D01*
X0020824Y0120574D01*
X0020682Y0120498D01*
X0020539Y0120425D01*
X0020394Y0120356D01*
X0020247Y0120290D01*
X0020099Y0120228D01*
X0019949Y0120170D01*
X0019798Y0120115D01*
X0019645Y0120064D01*
X0019491Y0120017D01*
X0019336Y0119974D01*
X0019180Y0119935D01*
X0019024Y0119899D01*
X0018866Y0119868D01*
X0018708Y0119840D01*
X0018549Y0119816D01*
X0018389Y0119796D01*
X0018229Y0119780D01*
X0018069Y0119768D01*
X0017908Y0119760D01*
X0017747Y0119756D01*
X0017587Y0119756D01*
X0017426Y0119760D01*
X0017265Y0119768D01*
X0017105Y0119780D01*
X0016945Y0119796D01*
X0016785Y0119816D01*
X0016626Y0119840D01*
X0016468Y0119868D01*
X0016310Y0119899D01*
X0016154Y0119935D01*
X0015998Y0119974D01*
X0015843Y0120017D01*
X0015689Y0120064D01*
X0015536Y0120115D01*
X0015385Y0120170D01*
X0015235Y0120228D01*
X0015087Y0120290D01*
X0014940Y0120356D01*
X0014795Y0120425D01*
X0014652Y0120498D01*
X0014510Y0120574D01*
X0014371Y0120654D01*
X0014233Y0120737D01*
X0014098Y0120824D01*
X0013964Y0120914D01*
X0013833Y0121007D01*
X0013705Y0121103D01*
X0013579Y0121203D01*
X0013455Y0121306D01*
X0013334Y0121411D01*
X0013215Y0121520D01*
X0013099Y0121631D01*
X0012986Y0121746D01*
X0012876Y0121863D01*
X0012769Y0121983D01*
X0012665Y0122105D01*
X0012564Y0122230D01*
X0012466Y0122358D01*
X0012371Y0122488D01*
X0012279Y0122620D01*
X0012191Y0122754D01*
X0012106Y0122891D01*
X0012024Y0123029D01*
X0011946Y0123170D01*
X0011872Y0123312D01*
X0011801Y0123456D01*
X0011733Y0123602D01*
X0011670Y0123750D01*
X0011609Y0123899D01*
X0011553Y0124050D01*
X0011500Y0124202D01*
X0011451Y0124355D01*
X0011406Y0124509D01*
X0011365Y0124664D01*
X0011327Y0124821D01*
X0011294Y0124978D01*
X0011264Y0125136D01*
X0011238Y0125295D01*
X0011217Y0125454D01*
X0011199Y0125614D01*
X0011185Y0125774D01*
X0011175Y0125935D01*
X0011169Y0126095D01*
X0011167Y0126256D01*
X0011167Y0176256D02*
X0011169Y0176417D01*
X0011175Y0176577D01*
X0011185Y0176738D01*
X0011199Y0176898D01*
X0011217Y0177058D01*
X0011238Y0177217D01*
X0011264Y0177376D01*
X0011294Y0177534D01*
X0011327Y0177691D01*
X0011365Y0177848D01*
X0011406Y0178003D01*
X0011451Y0178157D01*
X0011500Y0178310D01*
X0011553Y0178462D01*
X0011609Y0178613D01*
X0011670Y0178762D01*
X0011733Y0178910D01*
X0011801Y0179056D01*
X0011872Y0179200D01*
X0011946Y0179342D01*
X0012024Y0179483D01*
X0012106Y0179621D01*
X0012191Y0179758D01*
X0012279Y0179892D01*
X0012371Y0180024D01*
X0012466Y0180154D01*
X0012564Y0180282D01*
X0012665Y0180407D01*
X0012769Y0180529D01*
X0012876Y0180649D01*
X0012986Y0180766D01*
X0013099Y0180881D01*
X0013215Y0180992D01*
X0013334Y0181101D01*
X0013455Y0181206D01*
X0013579Y0181309D01*
X0013705Y0181409D01*
X0013833Y0181505D01*
X0013964Y0181598D01*
X0014098Y0181688D01*
X0014233Y0181775D01*
X0014371Y0181858D01*
X0014510Y0181938D01*
X0014652Y0182014D01*
X0014795Y0182087D01*
X0014940Y0182156D01*
X0015087Y0182222D01*
X0015235Y0182284D01*
X0015385Y0182342D01*
X0015536Y0182397D01*
X0015689Y0182448D01*
X0015843Y0182495D01*
X0015998Y0182538D01*
X0016154Y0182577D01*
X0016310Y0182613D01*
X0016468Y0182644D01*
X0016626Y0182672D01*
X0016785Y0182696D01*
X0016945Y0182716D01*
X0017105Y0182732D01*
X0017265Y0182744D01*
X0017426Y0182752D01*
X0017587Y0182756D01*
X0017747Y0182756D01*
X0017908Y0182752D01*
X0018069Y0182744D01*
X0018229Y0182732D01*
X0018389Y0182716D01*
X0018549Y0182696D01*
X0018708Y0182672D01*
X0018866Y0182644D01*
X0019024Y0182613D01*
X0019180Y0182577D01*
X0019336Y0182538D01*
X0019491Y0182495D01*
X0019645Y0182448D01*
X0019798Y0182397D01*
X0019949Y0182342D01*
X0020099Y0182284D01*
X0020247Y0182222D01*
X0020394Y0182156D01*
X0020539Y0182087D01*
X0020682Y0182014D01*
X0020824Y0181938D01*
X0020963Y0181858D01*
X0021101Y0181775D01*
X0021236Y0181688D01*
X0021370Y0181598D01*
X0021501Y0181505D01*
X0021629Y0181409D01*
X0021755Y0181309D01*
X0021879Y0181206D01*
X0022000Y0181101D01*
X0022119Y0180992D01*
X0022235Y0180881D01*
X0022348Y0180766D01*
X0022458Y0180649D01*
X0022565Y0180529D01*
X0022669Y0180407D01*
X0022770Y0180282D01*
X0022868Y0180154D01*
X0022963Y0180024D01*
X0023055Y0179892D01*
X0023143Y0179758D01*
X0023228Y0179621D01*
X0023310Y0179483D01*
X0023388Y0179342D01*
X0023462Y0179200D01*
X0023533Y0179056D01*
X0023601Y0178910D01*
X0023664Y0178762D01*
X0023725Y0178613D01*
X0023781Y0178462D01*
X0023834Y0178310D01*
X0023883Y0178157D01*
X0023928Y0178003D01*
X0023969Y0177848D01*
X0024007Y0177691D01*
X0024040Y0177534D01*
X0024070Y0177376D01*
X0024096Y0177217D01*
X0024117Y0177058D01*
X0024135Y0176898D01*
X0024149Y0176738D01*
X0024159Y0176577D01*
X0024165Y0176417D01*
X0024167Y0176256D01*
X0024165Y0176095D01*
X0024159Y0175935D01*
X0024149Y0175774D01*
X0024135Y0175614D01*
X0024117Y0175454D01*
X0024096Y0175295D01*
X0024070Y0175136D01*
X0024040Y0174978D01*
X0024007Y0174821D01*
X0023969Y0174664D01*
X0023928Y0174509D01*
X0023883Y0174355D01*
X0023834Y0174202D01*
X0023781Y0174050D01*
X0023725Y0173899D01*
X0023664Y0173750D01*
X0023601Y0173602D01*
X0023533Y0173456D01*
X0023462Y0173312D01*
X0023388Y0173170D01*
X0023310Y0173029D01*
X0023228Y0172891D01*
X0023143Y0172754D01*
X0023055Y0172620D01*
X0022963Y0172488D01*
X0022868Y0172358D01*
X0022770Y0172230D01*
X0022669Y0172105D01*
X0022565Y0171983D01*
X0022458Y0171863D01*
X0022348Y0171746D01*
X0022235Y0171631D01*
X0022119Y0171520D01*
X0022000Y0171411D01*
X0021879Y0171306D01*
X0021755Y0171203D01*
X0021629Y0171103D01*
X0021501Y0171007D01*
X0021370Y0170914D01*
X0021236Y0170824D01*
X0021101Y0170737D01*
X0020963Y0170654D01*
X0020824Y0170574D01*
X0020682Y0170498D01*
X0020539Y0170425D01*
X0020394Y0170356D01*
X0020247Y0170290D01*
X0020099Y0170228D01*
X0019949Y0170170D01*
X0019798Y0170115D01*
X0019645Y0170064D01*
X0019491Y0170017D01*
X0019336Y0169974D01*
X0019180Y0169935D01*
X0019024Y0169899D01*
X0018866Y0169868D01*
X0018708Y0169840D01*
X0018549Y0169816D01*
X0018389Y0169796D01*
X0018229Y0169780D01*
X0018069Y0169768D01*
X0017908Y0169760D01*
X0017747Y0169756D01*
X0017587Y0169756D01*
X0017426Y0169760D01*
X0017265Y0169768D01*
X0017105Y0169780D01*
X0016945Y0169796D01*
X0016785Y0169816D01*
X0016626Y0169840D01*
X0016468Y0169868D01*
X0016310Y0169899D01*
X0016154Y0169935D01*
X0015998Y0169974D01*
X0015843Y0170017D01*
X0015689Y0170064D01*
X0015536Y0170115D01*
X0015385Y0170170D01*
X0015235Y0170228D01*
X0015087Y0170290D01*
X0014940Y0170356D01*
X0014795Y0170425D01*
X0014652Y0170498D01*
X0014510Y0170574D01*
X0014371Y0170654D01*
X0014233Y0170737D01*
X0014098Y0170824D01*
X0013964Y0170914D01*
X0013833Y0171007D01*
X0013705Y0171103D01*
X0013579Y0171203D01*
X0013455Y0171306D01*
X0013334Y0171411D01*
X0013215Y0171520D01*
X0013099Y0171631D01*
X0012986Y0171746D01*
X0012876Y0171863D01*
X0012769Y0171983D01*
X0012665Y0172105D01*
X0012564Y0172230D01*
X0012466Y0172358D01*
X0012371Y0172488D01*
X0012279Y0172620D01*
X0012191Y0172754D01*
X0012106Y0172891D01*
X0012024Y0173029D01*
X0011946Y0173170D01*
X0011872Y0173312D01*
X0011801Y0173456D01*
X0011733Y0173602D01*
X0011670Y0173750D01*
X0011609Y0173899D01*
X0011553Y0174050D01*
X0011500Y0174202D01*
X0011451Y0174355D01*
X0011406Y0174509D01*
X0011365Y0174664D01*
X0011327Y0174821D01*
X0011294Y0174978D01*
X0011264Y0175136D01*
X0011238Y0175295D01*
X0011217Y0175454D01*
X0011199Y0175614D01*
X0011185Y0175774D01*
X0011175Y0175935D01*
X0011169Y0176095D01*
X0011167Y0176256D01*
X0176167Y0176256D02*
X0176169Y0176417D01*
X0176175Y0176577D01*
X0176185Y0176738D01*
X0176199Y0176898D01*
X0176217Y0177058D01*
X0176238Y0177217D01*
X0176264Y0177376D01*
X0176294Y0177534D01*
X0176327Y0177691D01*
X0176365Y0177848D01*
X0176406Y0178003D01*
X0176451Y0178157D01*
X0176500Y0178310D01*
X0176553Y0178462D01*
X0176609Y0178613D01*
X0176670Y0178762D01*
X0176733Y0178910D01*
X0176801Y0179056D01*
X0176872Y0179200D01*
X0176946Y0179342D01*
X0177024Y0179483D01*
X0177106Y0179621D01*
X0177191Y0179758D01*
X0177279Y0179892D01*
X0177371Y0180024D01*
X0177466Y0180154D01*
X0177564Y0180282D01*
X0177665Y0180407D01*
X0177769Y0180529D01*
X0177876Y0180649D01*
X0177986Y0180766D01*
X0178099Y0180881D01*
X0178215Y0180992D01*
X0178334Y0181101D01*
X0178455Y0181206D01*
X0178579Y0181309D01*
X0178705Y0181409D01*
X0178833Y0181505D01*
X0178964Y0181598D01*
X0179098Y0181688D01*
X0179233Y0181775D01*
X0179371Y0181858D01*
X0179510Y0181938D01*
X0179652Y0182014D01*
X0179795Y0182087D01*
X0179940Y0182156D01*
X0180087Y0182222D01*
X0180235Y0182284D01*
X0180385Y0182342D01*
X0180536Y0182397D01*
X0180689Y0182448D01*
X0180843Y0182495D01*
X0180998Y0182538D01*
X0181154Y0182577D01*
X0181310Y0182613D01*
X0181468Y0182644D01*
X0181626Y0182672D01*
X0181785Y0182696D01*
X0181945Y0182716D01*
X0182105Y0182732D01*
X0182265Y0182744D01*
X0182426Y0182752D01*
X0182587Y0182756D01*
X0182747Y0182756D01*
X0182908Y0182752D01*
X0183069Y0182744D01*
X0183229Y0182732D01*
X0183389Y0182716D01*
X0183549Y0182696D01*
X0183708Y0182672D01*
X0183866Y0182644D01*
X0184024Y0182613D01*
X0184180Y0182577D01*
X0184336Y0182538D01*
X0184491Y0182495D01*
X0184645Y0182448D01*
X0184798Y0182397D01*
X0184949Y0182342D01*
X0185099Y0182284D01*
X0185247Y0182222D01*
X0185394Y0182156D01*
X0185539Y0182087D01*
X0185682Y0182014D01*
X0185824Y0181938D01*
X0185963Y0181858D01*
X0186101Y0181775D01*
X0186236Y0181688D01*
X0186370Y0181598D01*
X0186501Y0181505D01*
X0186629Y0181409D01*
X0186755Y0181309D01*
X0186879Y0181206D01*
X0187000Y0181101D01*
X0187119Y0180992D01*
X0187235Y0180881D01*
X0187348Y0180766D01*
X0187458Y0180649D01*
X0187565Y0180529D01*
X0187669Y0180407D01*
X0187770Y0180282D01*
X0187868Y0180154D01*
X0187963Y0180024D01*
X0188055Y0179892D01*
X0188143Y0179758D01*
X0188228Y0179621D01*
X0188310Y0179483D01*
X0188388Y0179342D01*
X0188462Y0179200D01*
X0188533Y0179056D01*
X0188601Y0178910D01*
X0188664Y0178762D01*
X0188725Y0178613D01*
X0188781Y0178462D01*
X0188834Y0178310D01*
X0188883Y0178157D01*
X0188928Y0178003D01*
X0188969Y0177848D01*
X0189007Y0177691D01*
X0189040Y0177534D01*
X0189070Y0177376D01*
X0189096Y0177217D01*
X0189117Y0177058D01*
X0189135Y0176898D01*
X0189149Y0176738D01*
X0189159Y0176577D01*
X0189165Y0176417D01*
X0189167Y0176256D01*
X0189165Y0176095D01*
X0189159Y0175935D01*
X0189149Y0175774D01*
X0189135Y0175614D01*
X0189117Y0175454D01*
X0189096Y0175295D01*
X0189070Y0175136D01*
X0189040Y0174978D01*
X0189007Y0174821D01*
X0188969Y0174664D01*
X0188928Y0174509D01*
X0188883Y0174355D01*
X0188834Y0174202D01*
X0188781Y0174050D01*
X0188725Y0173899D01*
X0188664Y0173750D01*
X0188601Y0173602D01*
X0188533Y0173456D01*
X0188462Y0173312D01*
X0188388Y0173170D01*
X0188310Y0173029D01*
X0188228Y0172891D01*
X0188143Y0172754D01*
X0188055Y0172620D01*
X0187963Y0172488D01*
X0187868Y0172358D01*
X0187770Y0172230D01*
X0187669Y0172105D01*
X0187565Y0171983D01*
X0187458Y0171863D01*
X0187348Y0171746D01*
X0187235Y0171631D01*
X0187119Y0171520D01*
X0187000Y0171411D01*
X0186879Y0171306D01*
X0186755Y0171203D01*
X0186629Y0171103D01*
X0186501Y0171007D01*
X0186370Y0170914D01*
X0186236Y0170824D01*
X0186101Y0170737D01*
X0185963Y0170654D01*
X0185824Y0170574D01*
X0185682Y0170498D01*
X0185539Y0170425D01*
X0185394Y0170356D01*
X0185247Y0170290D01*
X0185099Y0170228D01*
X0184949Y0170170D01*
X0184798Y0170115D01*
X0184645Y0170064D01*
X0184491Y0170017D01*
X0184336Y0169974D01*
X0184180Y0169935D01*
X0184024Y0169899D01*
X0183866Y0169868D01*
X0183708Y0169840D01*
X0183549Y0169816D01*
X0183389Y0169796D01*
X0183229Y0169780D01*
X0183069Y0169768D01*
X0182908Y0169760D01*
X0182747Y0169756D01*
X0182587Y0169756D01*
X0182426Y0169760D01*
X0182265Y0169768D01*
X0182105Y0169780D01*
X0181945Y0169796D01*
X0181785Y0169816D01*
X0181626Y0169840D01*
X0181468Y0169868D01*
X0181310Y0169899D01*
X0181154Y0169935D01*
X0180998Y0169974D01*
X0180843Y0170017D01*
X0180689Y0170064D01*
X0180536Y0170115D01*
X0180385Y0170170D01*
X0180235Y0170228D01*
X0180087Y0170290D01*
X0179940Y0170356D01*
X0179795Y0170425D01*
X0179652Y0170498D01*
X0179510Y0170574D01*
X0179371Y0170654D01*
X0179233Y0170737D01*
X0179098Y0170824D01*
X0178964Y0170914D01*
X0178833Y0171007D01*
X0178705Y0171103D01*
X0178579Y0171203D01*
X0178455Y0171306D01*
X0178334Y0171411D01*
X0178215Y0171520D01*
X0178099Y0171631D01*
X0177986Y0171746D01*
X0177876Y0171863D01*
X0177769Y0171983D01*
X0177665Y0172105D01*
X0177564Y0172230D01*
X0177466Y0172358D01*
X0177371Y0172488D01*
X0177279Y0172620D01*
X0177191Y0172754D01*
X0177106Y0172891D01*
X0177024Y0173029D01*
X0176946Y0173170D01*
X0176872Y0173312D01*
X0176801Y0173456D01*
X0176733Y0173602D01*
X0176670Y0173750D01*
X0176609Y0173899D01*
X0176553Y0174050D01*
X0176500Y0174202D01*
X0176451Y0174355D01*
X0176406Y0174509D01*
X0176365Y0174664D01*
X0176327Y0174821D01*
X0176294Y0174978D01*
X0176264Y0175136D01*
X0176238Y0175295D01*
X0176217Y0175454D01*
X0176199Y0175614D01*
X0176185Y0175774D01*
X0176175Y0175935D01*
X0176169Y0176095D01*
X0176167Y0176256D01*
X0176167Y0126256D02*
X0176169Y0126417D01*
X0176175Y0126577D01*
X0176185Y0126738D01*
X0176199Y0126898D01*
X0176217Y0127058D01*
X0176238Y0127217D01*
X0176264Y0127376D01*
X0176294Y0127534D01*
X0176327Y0127691D01*
X0176365Y0127848D01*
X0176406Y0128003D01*
X0176451Y0128157D01*
X0176500Y0128310D01*
X0176553Y0128462D01*
X0176609Y0128613D01*
X0176670Y0128762D01*
X0176733Y0128910D01*
X0176801Y0129056D01*
X0176872Y0129200D01*
X0176946Y0129342D01*
X0177024Y0129483D01*
X0177106Y0129621D01*
X0177191Y0129758D01*
X0177279Y0129892D01*
X0177371Y0130024D01*
X0177466Y0130154D01*
X0177564Y0130282D01*
X0177665Y0130407D01*
X0177769Y0130529D01*
X0177876Y0130649D01*
X0177986Y0130766D01*
X0178099Y0130881D01*
X0178215Y0130992D01*
X0178334Y0131101D01*
X0178455Y0131206D01*
X0178579Y0131309D01*
X0178705Y0131409D01*
X0178833Y0131505D01*
X0178964Y0131598D01*
X0179098Y0131688D01*
X0179233Y0131775D01*
X0179371Y0131858D01*
X0179510Y0131938D01*
X0179652Y0132014D01*
X0179795Y0132087D01*
X0179940Y0132156D01*
X0180087Y0132222D01*
X0180235Y0132284D01*
X0180385Y0132342D01*
X0180536Y0132397D01*
X0180689Y0132448D01*
X0180843Y0132495D01*
X0180998Y0132538D01*
X0181154Y0132577D01*
X0181310Y0132613D01*
X0181468Y0132644D01*
X0181626Y0132672D01*
X0181785Y0132696D01*
X0181945Y0132716D01*
X0182105Y0132732D01*
X0182265Y0132744D01*
X0182426Y0132752D01*
X0182587Y0132756D01*
X0182747Y0132756D01*
X0182908Y0132752D01*
X0183069Y0132744D01*
X0183229Y0132732D01*
X0183389Y0132716D01*
X0183549Y0132696D01*
X0183708Y0132672D01*
X0183866Y0132644D01*
X0184024Y0132613D01*
X0184180Y0132577D01*
X0184336Y0132538D01*
X0184491Y0132495D01*
X0184645Y0132448D01*
X0184798Y0132397D01*
X0184949Y0132342D01*
X0185099Y0132284D01*
X0185247Y0132222D01*
X0185394Y0132156D01*
X0185539Y0132087D01*
X0185682Y0132014D01*
X0185824Y0131938D01*
X0185963Y0131858D01*
X0186101Y0131775D01*
X0186236Y0131688D01*
X0186370Y0131598D01*
X0186501Y0131505D01*
X0186629Y0131409D01*
X0186755Y0131309D01*
X0186879Y0131206D01*
X0187000Y0131101D01*
X0187119Y0130992D01*
X0187235Y0130881D01*
X0187348Y0130766D01*
X0187458Y0130649D01*
X0187565Y0130529D01*
X0187669Y0130407D01*
X0187770Y0130282D01*
X0187868Y0130154D01*
X0187963Y0130024D01*
X0188055Y0129892D01*
X0188143Y0129758D01*
X0188228Y0129621D01*
X0188310Y0129483D01*
X0188388Y0129342D01*
X0188462Y0129200D01*
X0188533Y0129056D01*
X0188601Y0128910D01*
X0188664Y0128762D01*
X0188725Y0128613D01*
X0188781Y0128462D01*
X0188834Y0128310D01*
X0188883Y0128157D01*
X0188928Y0128003D01*
X0188969Y0127848D01*
X0189007Y0127691D01*
X0189040Y0127534D01*
X0189070Y0127376D01*
X0189096Y0127217D01*
X0189117Y0127058D01*
X0189135Y0126898D01*
X0189149Y0126738D01*
X0189159Y0126577D01*
X0189165Y0126417D01*
X0189167Y0126256D01*
X0189165Y0126095D01*
X0189159Y0125935D01*
X0189149Y0125774D01*
X0189135Y0125614D01*
X0189117Y0125454D01*
X0189096Y0125295D01*
X0189070Y0125136D01*
X0189040Y0124978D01*
X0189007Y0124821D01*
X0188969Y0124664D01*
X0188928Y0124509D01*
X0188883Y0124355D01*
X0188834Y0124202D01*
X0188781Y0124050D01*
X0188725Y0123899D01*
X0188664Y0123750D01*
X0188601Y0123602D01*
X0188533Y0123456D01*
X0188462Y0123312D01*
X0188388Y0123170D01*
X0188310Y0123029D01*
X0188228Y0122891D01*
X0188143Y0122754D01*
X0188055Y0122620D01*
X0187963Y0122488D01*
X0187868Y0122358D01*
X0187770Y0122230D01*
X0187669Y0122105D01*
X0187565Y0121983D01*
X0187458Y0121863D01*
X0187348Y0121746D01*
X0187235Y0121631D01*
X0187119Y0121520D01*
X0187000Y0121411D01*
X0186879Y0121306D01*
X0186755Y0121203D01*
X0186629Y0121103D01*
X0186501Y0121007D01*
X0186370Y0120914D01*
X0186236Y0120824D01*
X0186101Y0120737D01*
X0185963Y0120654D01*
X0185824Y0120574D01*
X0185682Y0120498D01*
X0185539Y0120425D01*
X0185394Y0120356D01*
X0185247Y0120290D01*
X0185099Y0120228D01*
X0184949Y0120170D01*
X0184798Y0120115D01*
X0184645Y0120064D01*
X0184491Y0120017D01*
X0184336Y0119974D01*
X0184180Y0119935D01*
X0184024Y0119899D01*
X0183866Y0119868D01*
X0183708Y0119840D01*
X0183549Y0119816D01*
X0183389Y0119796D01*
X0183229Y0119780D01*
X0183069Y0119768D01*
X0182908Y0119760D01*
X0182747Y0119756D01*
X0182587Y0119756D01*
X0182426Y0119760D01*
X0182265Y0119768D01*
X0182105Y0119780D01*
X0181945Y0119796D01*
X0181785Y0119816D01*
X0181626Y0119840D01*
X0181468Y0119868D01*
X0181310Y0119899D01*
X0181154Y0119935D01*
X0180998Y0119974D01*
X0180843Y0120017D01*
X0180689Y0120064D01*
X0180536Y0120115D01*
X0180385Y0120170D01*
X0180235Y0120228D01*
X0180087Y0120290D01*
X0179940Y0120356D01*
X0179795Y0120425D01*
X0179652Y0120498D01*
X0179510Y0120574D01*
X0179371Y0120654D01*
X0179233Y0120737D01*
X0179098Y0120824D01*
X0178964Y0120914D01*
X0178833Y0121007D01*
X0178705Y0121103D01*
X0178579Y0121203D01*
X0178455Y0121306D01*
X0178334Y0121411D01*
X0178215Y0121520D01*
X0178099Y0121631D01*
X0177986Y0121746D01*
X0177876Y0121863D01*
X0177769Y0121983D01*
X0177665Y0122105D01*
X0177564Y0122230D01*
X0177466Y0122358D01*
X0177371Y0122488D01*
X0177279Y0122620D01*
X0177191Y0122754D01*
X0177106Y0122891D01*
X0177024Y0123029D01*
X0176946Y0123170D01*
X0176872Y0123312D01*
X0176801Y0123456D01*
X0176733Y0123602D01*
X0176670Y0123750D01*
X0176609Y0123899D01*
X0176553Y0124050D01*
X0176500Y0124202D01*
X0176451Y0124355D01*
X0176406Y0124509D01*
X0176365Y0124664D01*
X0176327Y0124821D01*
X0176294Y0124978D01*
X0176264Y0125136D01*
X0176238Y0125295D01*
X0176217Y0125454D01*
X0176199Y0125614D01*
X0176185Y0125774D01*
X0176175Y0125935D01*
X0176169Y0126095D01*
X0176167Y0126256D01*
D11*
X0201410Y0011492D02*
X0203924Y0011492D01*
X0202667Y0001512D01*
X0203690Y0011492D01*
X0203178Y0011492D02*
X0202667Y0001512D01*
X0201643Y0011492D01*
X0201410Y0011492D02*
X0202667Y0001512D01*
X0202155Y0011492D01*
X0202667Y0001512D02*
X0202667Y0279701D01*
X0203690Y0269720D01*
X0203924Y0269720D02*
X0202667Y0279701D01*
X0201643Y0269720D01*
X0201410Y0269720D02*
X0203924Y0269720D01*
X0203178Y0269720D02*
X0202667Y0279701D01*
X0202155Y0269720D01*
X0201410Y0269720D02*
X0202667Y0279701D01*
X0210344Y0279957D02*
X0187588Y0279957D01*
X0187731Y0298145D01*
X0187415Y0290470D02*
X0177427Y0289525D01*
X0177425Y0289292D02*
X0187415Y0290470D01*
X0177443Y0291572D01*
X0177445Y0291806D02*
X0177425Y0289292D01*
X0177431Y0290037D02*
X0187415Y0290470D01*
X0177439Y0291061D01*
X0177445Y0291806D02*
X0187415Y0290470D01*
X0023005Y0291765D01*
X0032977Y0290663D01*
X0032975Y0290430D02*
X0023005Y0291765D01*
X0032993Y0292710D01*
X0032995Y0292943D02*
X0032975Y0290430D01*
X0032981Y0291175D02*
X0023005Y0291765D01*
X0032989Y0292198D01*
X0032995Y0292943D02*
X0023005Y0291765D01*
X0022810Y0299444D02*
X0022667Y0281256D01*
X0187588Y0001256D02*
X0210344Y0001256D01*
D12*
X0200105Y0128431D02*
X0199037Y0128431D01*
X0194767Y0132701D01*
X0193699Y0132701D01*
X0193699Y0128431D01*
X0194767Y0134877D02*
X0193699Y0135944D01*
X0193699Y0138079D01*
X0194767Y0139147D01*
X0199037Y0134877D01*
X0200105Y0135944D01*
X0200105Y0138079D01*
X0199037Y0139147D01*
X0194767Y0139147D01*
X0194767Y0134877D02*
X0199037Y0134877D01*
X0199037Y0141322D02*
X0199037Y0142390D01*
X0200105Y0142390D01*
X0200105Y0141322D01*
X0199037Y0141322D01*
X0199037Y0144545D02*
X0200105Y0144545D01*
X0199037Y0144545D02*
X0194767Y0148815D01*
X0193699Y0148815D01*
X0193699Y0144545D01*
X0194767Y0150990D02*
X0195835Y0150990D01*
X0196902Y0152058D01*
X0196902Y0155261D01*
X0194767Y0155261D02*
X0193699Y0154193D01*
X0193699Y0152058D01*
X0194767Y0150990D01*
X0199037Y0150990D02*
X0200105Y0152058D01*
X0200105Y0154193D01*
X0199037Y0155261D01*
X0194767Y0155261D01*
X0118817Y0293596D02*
X0116681Y0293611D01*
X0115621Y0294686D01*
X0113446Y0294701D02*
X0113454Y0295768D01*
X0112394Y0296843D01*
X0110258Y0296858D01*
X0109198Y0297933D01*
X0109206Y0299001D01*
X0110281Y0300061D01*
X0112416Y0300046D01*
X0113476Y0298971D01*
X0113469Y0297903D01*
X0112394Y0296843D01*
X0110258Y0296858D02*
X0109183Y0295798D01*
X0109176Y0294731D01*
X0110236Y0293656D01*
X0112371Y0293641D01*
X0113446Y0294701D01*
X0115644Y0297888D02*
X0116704Y0296813D01*
X0119906Y0296791D01*
X0119892Y0294656D02*
X0119921Y0298926D01*
X0118861Y0300001D01*
X0116726Y0300016D01*
X0115651Y0298956D01*
X0115644Y0297888D01*
X0118817Y0293596D02*
X0119892Y0294656D01*
X0107021Y0294746D02*
X0107013Y0293678D01*
X0105946Y0293686D01*
X0105953Y0294753D01*
X0107021Y0294746D01*
X0103771Y0293701D02*
X0099501Y0293731D01*
X0101636Y0293716D02*
X0101680Y0300121D01*
X0099530Y0298001D01*
X0097348Y0296948D02*
X0093078Y0296978D01*
X0096303Y0300159D01*
X0096258Y0293753D01*
X0042667Y0191756D02*
X0042667Y0160756D01*
X0001667Y0160756D01*
X0001667Y0191756D01*
X0042667Y0191756D01*
X0025230Y0181134D02*
X0023419Y0179283D01*
X0020556Y0182079D02*
X0022367Y0183929D01*
X0025230Y0171378D02*
X0025113Y0171201D01*
X0024991Y0171027D01*
X0024866Y0170856D01*
X0024737Y0170687D01*
X0024603Y0170522D01*
X0024466Y0170360D01*
X0024325Y0170201D01*
X0024180Y0170046D01*
X0024032Y0169894D01*
X0023880Y0169746D01*
X0023725Y0169601D01*
X0023566Y0169460D01*
X0023404Y0169323D01*
X0023239Y0169189D01*
X0023071Y0169060D01*
X0022900Y0168934D01*
X0022726Y0168813D01*
X0022549Y0168696D01*
X0022369Y0168583D01*
X0022367Y0168583D02*
X0020556Y0170433D01*
X0023419Y0173228D02*
X0025230Y0171378D01*
X0011167Y0176256D02*
X0011169Y0176417D01*
X0011175Y0176577D01*
X0011185Y0176738D01*
X0011199Y0176898D01*
X0011217Y0177058D01*
X0011238Y0177217D01*
X0011264Y0177376D01*
X0011294Y0177534D01*
X0011327Y0177691D01*
X0011365Y0177848D01*
X0011406Y0178003D01*
X0011451Y0178157D01*
X0011500Y0178310D01*
X0011553Y0178462D01*
X0011609Y0178613D01*
X0011670Y0178762D01*
X0011733Y0178910D01*
X0011801Y0179056D01*
X0011872Y0179200D01*
X0011946Y0179342D01*
X0012024Y0179483D01*
X0012106Y0179621D01*
X0012191Y0179758D01*
X0012279Y0179892D01*
X0012371Y0180024D01*
X0012466Y0180154D01*
X0012564Y0180282D01*
X0012665Y0180407D01*
X0012769Y0180529D01*
X0012876Y0180649D01*
X0012986Y0180766D01*
X0013099Y0180881D01*
X0013215Y0180992D01*
X0013334Y0181101D01*
X0013455Y0181206D01*
X0013579Y0181309D01*
X0013705Y0181409D01*
X0013833Y0181505D01*
X0013964Y0181598D01*
X0014098Y0181688D01*
X0014233Y0181775D01*
X0014371Y0181858D01*
X0014510Y0181938D01*
X0014652Y0182014D01*
X0014795Y0182087D01*
X0014940Y0182156D01*
X0015087Y0182222D01*
X0015235Y0182284D01*
X0015385Y0182342D01*
X0015536Y0182397D01*
X0015689Y0182448D01*
X0015843Y0182495D01*
X0015998Y0182538D01*
X0016154Y0182577D01*
X0016310Y0182613D01*
X0016468Y0182644D01*
X0016626Y0182672D01*
X0016785Y0182696D01*
X0016945Y0182716D01*
X0017105Y0182732D01*
X0017265Y0182744D01*
X0017426Y0182752D01*
X0017587Y0182756D01*
X0017747Y0182756D01*
X0017908Y0182752D01*
X0018069Y0182744D01*
X0018229Y0182732D01*
X0018389Y0182716D01*
X0018549Y0182696D01*
X0018708Y0182672D01*
X0018866Y0182644D01*
X0019024Y0182613D01*
X0019180Y0182577D01*
X0019336Y0182538D01*
X0019491Y0182495D01*
X0019645Y0182448D01*
X0019798Y0182397D01*
X0019949Y0182342D01*
X0020099Y0182284D01*
X0020247Y0182222D01*
X0020394Y0182156D01*
X0020539Y0182087D01*
X0020682Y0182014D01*
X0020824Y0181938D01*
X0020963Y0181858D01*
X0021101Y0181775D01*
X0021236Y0181688D01*
X0021370Y0181598D01*
X0021501Y0181505D01*
X0021629Y0181409D01*
X0021755Y0181309D01*
X0021879Y0181206D01*
X0022000Y0181101D01*
X0022119Y0180992D01*
X0022235Y0180881D01*
X0022348Y0180766D01*
X0022458Y0180649D01*
X0022565Y0180529D01*
X0022669Y0180407D01*
X0022770Y0180282D01*
X0022868Y0180154D01*
X0022963Y0180024D01*
X0023055Y0179892D01*
X0023143Y0179758D01*
X0023228Y0179621D01*
X0023310Y0179483D01*
X0023388Y0179342D01*
X0023462Y0179200D01*
X0023533Y0179056D01*
X0023601Y0178910D01*
X0023664Y0178762D01*
X0023725Y0178613D01*
X0023781Y0178462D01*
X0023834Y0178310D01*
X0023883Y0178157D01*
X0023928Y0178003D01*
X0023969Y0177848D01*
X0024007Y0177691D01*
X0024040Y0177534D01*
X0024070Y0177376D01*
X0024096Y0177217D01*
X0024117Y0177058D01*
X0024135Y0176898D01*
X0024149Y0176738D01*
X0024159Y0176577D01*
X0024165Y0176417D01*
X0024167Y0176256D01*
X0024165Y0176095D01*
X0024159Y0175935D01*
X0024149Y0175774D01*
X0024135Y0175614D01*
X0024117Y0175454D01*
X0024096Y0175295D01*
X0024070Y0175136D01*
X0024040Y0174978D01*
X0024007Y0174821D01*
X0023969Y0174664D01*
X0023928Y0174509D01*
X0023883Y0174355D01*
X0023834Y0174202D01*
X0023781Y0174050D01*
X0023725Y0173899D01*
X0023664Y0173750D01*
X0023601Y0173602D01*
X0023533Y0173456D01*
X0023462Y0173312D01*
X0023388Y0173170D01*
X0023310Y0173029D01*
X0023228Y0172891D01*
X0023143Y0172754D01*
X0023055Y0172620D01*
X0022963Y0172488D01*
X0022868Y0172358D01*
X0022770Y0172230D01*
X0022669Y0172105D01*
X0022565Y0171983D01*
X0022458Y0171863D01*
X0022348Y0171746D01*
X0022235Y0171631D01*
X0022119Y0171520D01*
X0022000Y0171411D01*
X0021879Y0171306D01*
X0021755Y0171203D01*
X0021629Y0171103D01*
X0021501Y0171007D01*
X0021370Y0170914D01*
X0021236Y0170824D01*
X0021101Y0170737D01*
X0020963Y0170654D01*
X0020824Y0170574D01*
X0020682Y0170498D01*
X0020539Y0170425D01*
X0020394Y0170356D01*
X0020247Y0170290D01*
X0020099Y0170228D01*
X0019949Y0170170D01*
X0019798Y0170115D01*
X0019645Y0170064D01*
X0019491Y0170017D01*
X0019336Y0169974D01*
X0019180Y0169935D01*
X0019024Y0169899D01*
X0018866Y0169868D01*
X0018708Y0169840D01*
X0018549Y0169816D01*
X0018389Y0169796D01*
X0018229Y0169780D01*
X0018069Y0169768D01*
X0017908Y0169760D01*
X0017747Y0169756D01*
X0017587Y0169756D01*
X0017426Y0169760D01*
X0017265Y0169768D01*
X0017105Y0169780D01*
X0016945Y0169796D01*
X0016785Y0169816D01*
X0016626Y0169840D01*
X0016468Y0169868D01*
X0016310Y0169899D01*
X0016154Y0169935D01*
X0015998Y0169974D01*
X0015843Y0170017D01*
X0015689Y0170064D01*
X0015536Y0170115D01*
X0015385Y0170170D01*
X0015235Y0170228D01*
X0015087Y0170290D01*
X0014940Y0170356D01*
X0014795Y0170425D01*
X0014652Y0170498D01*
X0014510Y0170574D01*
X0014371Y0170654D01*
X0014233Y0170737D01*
X0014098Y0170824D01*
X0013964Y0170914D01*
X0013833Y0171007D01*
X0013705Y0171103D01*
X0013579Y0171203D01*
X0013455Y0171306D01*
X0013334Y0171411D01*
X0013215Y0171520D01*
X0013099Y0171631D01*
X0012986Y0171746D01*
X0012876Y0171863D01*
X0012769Y0171983D01*
X0012665Y0172105D01*
X0012564Y0172230D01*
X0012466Y0172358D01*
X0012371Y0172488D01*
X0012279Y0172620D01*
X0012191Y0172754D01*
X0012106Y0172891D01*
X0012024Y0173029D01*
X0011946Y0173170D01*
X0011872Y0173312D01*
X0011801Y0173456D01*
X0011733Y0173602D01*
X0011670Y0173750D01*
X0011609Y0173899D01*
X0011553Y0174050D01*
X0011500Y0174202D01*
X0011451Y0174355D01*
X0011406Y0174509D01*
X0011365Y0174664D01*
X0011327Y0174821D01*
X0011294Y0174978D01*
X0011264Y0175136D01*
X0011238Y0175295D01*
X0011217Y0175454D01*
X0011199Y0175614D01*
X0011185Y0175774D01*
X0011175Y0175935D01*
X0011169Y0176095D01*
X0011167Y0176256D01*
X0011482Y0178256D02*
X0008891Y0178256D01*
X0008891Y0174256D02*
X0011482Y0174256D01*
X0022367Y0183929D02*
X0022547Y0183816D01*
X0022724Y0183699D01*
X0022898Y0183578D01*
X0023069Y0183452D01*
X0023237Y0183323D01*
X0023402Y0183189D01*
X0023564Y0183052D01*
X0023723Y0182911D01*
X0023878Y0182766D01*
X0024030Y0182618D01*
X0024178Y0182466D01*
X0024323Y0182311D01*
X0024464Y0182152D01*
X0024601Y0181990D01*
X0024735Y0181825D01*
X0024864Y0181656D01*
X0024989Y0181485D01*
X0025111Y0181311D01*
X0025228Y0181134D01*
X0008891Y0178256D02*
X0008846Y0178049D01*
X0008806Y0177840D01*
X0008772Y0177631D01*
X0008742Y0177420D01*
X0008717Y0177210D01*
X0008697Y0176998D01*
X0008682Y0176786D01*
X0008672Y0176574D01*
X0008667Y0176362D01*
X0008667Y0176150D01*
X0008672Y0175938D01*
X0008682Y0175726D01*
X0008697Y0175514D01*
X0008717Y0175302D01*
X0008742Y0175092D01*
X0008772Y0174881D01*
X0008806Y0174672D01*
X0008846Y0174463D01*
X0008891Y0174256D01*
D13*
X0030167Y0071256D02*
X0045167Y0071256D01*
X0155167Y0071256D02*
X0170167Y0071256D01*
D14*
X0160767Y0113956D03*
X0039567Y0188556D03*
D15*
X0007420Y0184154D02*
X0007420Y0182653D01*
X0006670Y0181902D01*
X0006670Y0180301D02*
X0003667Y0180301D01*
X0002917Y0179550D01*
X0002917Y0178049D01*
X0003667Y0177298D01*
X0006670Y0177298D01*
X0007420Y0178049D01*
X0007420Y0179550D01*
X0006670Y0180301D01*
X0004418Y0178799D02*
X0002917Y0180301D01*
X0002917Y0181902D02*
X0005919Y0184905D01*
X0006670Y0184905D01*
X0007420Y0184154D01*
X0002917Y0184905D02*
X0002917Y0181902D01*
X0157667Y0141756D02*
X0157667Y0110756D01*
X0198667Y0110756D01*
X0198667Y0141756D01*
X0157667Y0141756D01*
X0175104Y0131135D02*
X0176914Y0129282D01*
X0179775Y0132078D02*
X0177965Y0133930D01*
X0176167Y0126256D02*
X0176169Y0126417D01*
X0176175Y0126577D01*
X0176185Y0126738D01*
X0176199Y0126898D01*
X0176217Y0127058D01*
X0176238Y0127217D01*
X0176264Y0127376D01*
X0176294Y0127534D01*
X0176327Y0127691D01*
X0176365Y0127848D01*
X0176406Y0128003D01*
X0176451Y0128157D01*
X0176500Y0128310D01*
X0176553Y0128462D01*
X0176609Y0128613D01*
X0176670Y0128762D01*
X0176733Y0128910D01*
X0176801Y0129056D01*
X0176872Y0129200D01*
X0176946Y0129342D01*
X0177024Y0129483D01*
X0177106Y0129621D01*
X0177191Y0129758D01*
X0177279Y0129892D01*
X0177371Y0130024D01*
X0177466Y0130154D01*
X0177564Y0130282D01*
X0177665Y0130407D01*
X0177769Y0130529D01*
X0177876Y0130649D01*
X0177986Y0130766D01*
X0178099Y0130881D01*
X0178215Y0130992D01*
X0178334Y0131101D01*
X0178455Y0131206D01*
X0178579Y0131309D01*
X0178705Y0131409D01*
X0178833Y0131505D01*
X0178964Y0131598D01*
X0179098Y0131688D01*
X0179233Y0131775D01*
X0179371Y0131858D01*
X0179510Y0131938D01*
X0179652Y0132014D01*
X0179795Y0132087D01*
X0179940Y0132156D01*
X0180087Y0132222D01*
X0180235Y0132284D01*
X0180385Y0132342D01*
X0180536Y0132397D01*
X0180689Y0132448D01*
X0180843Y0132495D01*
X0180998Y0132538D01*
X0181154Y0132577D01*
X0181310Y0132613D01*
X0181468Y0132644D01*
X0181626Y0132672D01*
X0181785Y0132696D01*
X0181945Y0132716D01*
X0182105Y0132732D01*
X0182265Y0132744D01*
X0182426Y0132752D01*
X0182587Y0132756D01*
X0182747Y0132756D01*
X0182908Y0132752D01*
X0183069Y0132744D01*
X0183229Y0132732D01*
X0183389Y0132716D01*
X0183549Y0132696D01*
X0183708Y0132672D01*
X0183866Y0132644D01*
X0184024Y0132613D01*
X0184180Y0132577D01*
X0184336Y0132538D01*
X0184491Y0132495D01*
X0184645Y0132448D01*
X0184798Y0132397D01*
X0184949Y0132342D01*
X0185099Y0132284D01*
X0185247Y0132222D01*
X0185394Y0132156D01*
X0185539Y0132087D01*
X0185682Y0132014D01*
X0185824Y0131938D01*
X0185963Y0131858D01*
X0186101Y0131775D01*
X0186236Y0131688D01*
X0186370Y0131598D01*
X0186501Y0131505D01*
X0186629Y0131409D01*
X0186755Y0131309D01*
X0186879Y0131206D01*
X0187000Y0131101D01*
X0187119Y0130992D01*
X0187235Y0130881D01*
X0187348Y0130766D01*
X0187458Y0130649D01*
X0187565Y0130529D01*
X0187669Y0130407D01*
X0187770Y0130282D01*
X0187868Y0130154D01*
X0187963Y0130024D01*
X0188055Y0129892D01*
X0188143Y0129758D01*
X0188228Y0129621D01*
X0188310Y0129483D01*
X0188388Y0129342D01*
X0188462Y0129200D01*
X0188533Y0129056D01*
X0188601Y0128910D01*
X0188664Y0128762D01*
X0188725Y0128613D01*
X0188781Y0128462D01*
X0188834Y0128310D01*
X0188883Y0128157D01*
X0188928Y0128003D01*
X0188969Y0127848D01*
X0189007Y0127691D01*
X0189040Y0127534D01*
X0189070Y0127376D01*
X0189096Y0127217D01*
X0189117Y0127058D01*
X0189135Y0126898D01*
X0189149Y0126738D01*
X0189159Y0126577D01*
X0189165Y0126417D01*
X0189167Y0126256D01*
X0189165Y0126095D01*
X0189159Y0125935D01*
X0189149Y0125774D01*
X0189135Y0125614D01*
X0189117Y0125454D01*
X0189096Y0125295D01*
X0189070Y0125136D01*
X0189040Y0124978D01*
X0189007Y0124821D01*
X0188969Y0124664D01*
X0188928Y0124509D01*
X0188883Y0124355D01*
X0188834Y0124202D01*
X0188781Y0124050D01*
X0188725Y0123899D01*
X0188664Y0123750D01*
X0188601Y0123602D01*
X0188533Y0123456D01*
X0188462Y0123312D01*
X0188388Y0123170D01*
X0188310Y0123029D01*
X0188228Y0122891D01*
X0188143Y0122754D01*
X0188055Y0122620D01*
X0187963Y0122488D01*
X0187868Y0122358D01*
X0187770Y0122230D01*
X0187669Y0122105D01*
X0187565Y0121983D01*
X0187458Y0121863D01*
X0187348Y0121746D01*
X0187235Y0121631D01*
X0187119Y0121520D01*
X0187000Y0121411D01*
X0186879Y0121306D01*
X0186755Y0121203D01*
X0186629Y0121103D01*
X0186501Y0121007D01*
X0186370Y0120914D01*
X0186236Y0120824D01*
X0186101Y0120737D01*
X0185963Y0120654D01*
X0185824Y0120574D01*
X0185682Y0120498D01*
X0185539Y0120425D01*
X0185394Y0120356D01*
X0185247Y0120290D01*
X0185099Y0120228D01*
X0184949Y0120170D01*
X0184798Y0120115D01*
X0184645Y0120064D01*
X0184491Y0120017D01*
X0184336Y0119974D01*
X0184180Y0119935D01*
X0184024Y0119899D01*
X0183866Y0119868D01*
X0183708Y0119840D01*
X0183549Y0119816D01*
X0183389Y0119796D01*
X0183229Y0119780D01*
X0183069Y0119768D01*
X0182908Y0119760D01*
X0182747Y0119756D01*
X0182587Y0119756D01*
X0182426Y0119760D01*
X0182265Y0119768D01*
X0182105Y0119780D01*
X0181945Y0119796D01*
X0181785Y0119816D01*
X0181626Y0119840D01*
X0181468Y0119868D01*
X0181310Y0119899D01*
X0181154Y0119935D01*
X0180998Y0119974D01*
X0180843Y0120017D01*
X0180689Y0120064D01*
X0180536Y0120115D01*
X0180385Y0120170D01*
X0180235Y0120228D01*
X0180087Y0120290D01*
X0179940Y0120356D01*
X0179795Y0120425D01*
X0179652Y0120498D01*
X0179510Y0120574D01*
X0179371Y0120654D01*
X0179233Y0120737D01*
X0179098Y0120824D01*
X0178964Y0120914D01*
X0178833Y0121007D01*
X0178705Y0121103D01*
X0178579Y0121203D01*
X0178455Y0121306D01*
X0178334Y0121411D01*
X0178215Y0121520D01*
X0178099Y0121631D01*
X0177986Y0121746D01*
X0177876Y0121863D01*
X0177769Y0121983D01*
X0177665Y0122105D01*
X0177564Y0122230D01*
X0177466Y0122358D01*
X0177371Y0122488D01*
X0177279Y0122620D01*
X0177191Y0122754D01*
X0177106Y0122891D01*
X0177024Y0123029D01*
X0176946Y0123170D01*
X0176872Y0123312D01*
X0176801Y0123456D01*
X0176733Y0123602D01*
X0176670Y0123750D01*
X0176609Y0123899D01*
X0176553Y0124050D01*
X0176500Y0124202D01*
X0176451Y0124355D01*
X0176406Y0124509D01*
X0176365Y0124664D01*
X0176327Y0124821D01*
X0176294Y0124978D01*
X0176264Y0125136D01*
X0176238Y0125295D01*
X0176217Y0125454D01*
X0176199Y0125614D01*
X0176185Y0125774D01*
X0176175Y0125935D01*
X0176169Y0126095D01*
X0176167Y0126256D01*
X0176914Y0123230D02*
X0175104Y0121377D01*
X0177965Y0118581D02*
X0179775Y0120434D01*
X0191442Y0124256D02*
X0191487Y0124463D01*
X0191527Y0124672D01*
X0191561Y0124881D01*
X0191591Y0125092D01*
X0191616Y0125302D01*
X0191636Y0125514D01*
X0191651Y0125726D01*
X0191661Y0125938D01*
X0191666Y0126150D01*
X0191666Y0126362D01*
X0191661Y0126574D01*
X0191651Y0126786D01*
X0191636Y0126998D01*
X0191616Y0127210D01*
X0191591Y0127420D01*
X0191561Y0127631D01*
X0191527Y0127840D01*
X0191487Y0128049D01*
X0191442Y0128256D01*
X0191441Y0128256D02*
X0188851Y0128256D01*
X0188851Y0124256D02*
X0191441Y0124256D01*
X0192917Y0124112D02*
X0192917Y0121110D01*
X0195919Y0124112D01*
X0196670Y0124112D01*
X0197420Y0123362D01*
X0197420Y0121860D01*
X0196670Y0121110D01*
X0197420Y0119508D02*
X0197420Y0116506D01*
X0197420Y0118007D02*
X0192917Y0118007D01*
X0177965Y0118582D02*
X0177785Y0118695D01*
X0177608Y0118812D01*
X0177434Y0118933D01*
X0177263Y0119059D01*
X0177095Y0119188D01*
X0176930Y0119322D01*
X0176768Y0119459D01*
X0176609Y0119600D01*
X0176454Y0119745D01*
X0176302Y0119893D01*
X0176154Y0120045D01*
X0176009Y0120200D01*
X0175868Y0120359D01*
X0175731Y0120521D01*
X0175597Y0120686D01*
X0175468Y0120855D01*
X0175343Y0121026D01*
X0175221Y0121200D01*
X0175104Y0121377D01*
X0175104Y0131135D02*
X0175221Y0131312D01*
X0175343Y0131486D01*
X0175468Y0131657D01*
X0175597Y0131826D01*
X0175731Y0131991D01*
X0175868Y0132153D01*
X0176009Y0132312D01*
X0176154Y0132467D01*
X0176302Y0132619D01*
X0176454Y0132767D01*
X0176609Y0132912D01*
X0176768Y0133053D01*
X0176930Y0133190D01*
X0177095Y0133324D01*
X0177263Y0133453D01*
X0177434Y0133579D01*
X0177608Y0133700D01*
X0177785Y0133817D01*
X0177965Y0133930D01*
D16*
X0154167Y0126256D03*
X0046167Y0176256D03*
D17*
X0046917Y0176256D03*
X0046917Y0185256D03*
X0046917Y0167256D03*
X0153417Y0135256D03*
X0153417Y0126256D03*
X0153417Y0117256D03*
M02*
