G75*
%MOIN*%
%OFA0B0*%
%FSLAX25Y25*%
%IPPOS*%
%LPD*%
%AMOC8*
5,1,8,0,0,1.08239X$1,22.5*
%
%ADD10C,0.07400*%
%ADD11C,0.10000*%
%ADD12C,0.07800*%
%ADD13C,0.06600*%
%ADD14C,0.08600*%
D10*
X0037667Y0076256D03*
X0037667Y0086256D03*
X0162667Y0086256D03*
X0162667Y0076256D03*
D11*
X0122667Y0086256D03*
X0122667Y0126256D03*
X0122667Y0176256D03*
X0122667Y0216256D03*
X0077667Y0216256D03*
X0077667Y0176256D03*
X0077667Y0126256D03*
X0077667Y0086256D03*
D12*
X0082967Y0030156D02*
X0082967Y0022356D01*
X0102667Y0022356D02*
X0102667Y0030156D01*
X0122367Y0030156D02*
X0122367Y0022356D01*
X0130467Y0257356D02*
X0130467Y0265156D01*
X0150167Y0265156D02*
X0150167Y0257356D01*
X0169867Y0257356D02*
X0169867Y0265156D01*
X0110067Y0265156D02*
X0110067Y0257356D01*
X0090267Y0257356D02*
X0090267Y0265156D01*
D13*
X0060967Y0185256D02*
X0054367Y0185256D01*
X0054367Y0176256D02*
X0060967Y0176256D01*
X0060967Y0167256D02*
X0054367Y0167256D01*
X0054367Y0135256D02*
X0060967Y0135256D01*
X0060967Y0126256D02*
X0054367Y0126256D01*
X0054367Y0117256D02*
X0060967Y0117256D01*
X0139367Y0117256D02*
X0145967Y0117256D01*
X0145967Y0126256D02*
X0139367Y0126256D01*
X0139367Y0135256D02*
X0145967Y0135256D01*
X0145967Y0167256D02*
X0139367Y0167256D01*
X0139367Y0176256D02*
X0145967Y0176256D01*
X0145967Y0185256D02*
X0139367Y0185256D01*
D14*
X0037667Y0026256D03*
X0037667Y0056256D03*
X0037667Y0106256D03*
X0037667Y0136256D03*
X0062667Y0151256D03*
X0092667Y0151256D03*
X0107667Y0151256D03*
X0137667Y0151256D03*
X0162667Y0136256D03*
X0162667Y0106256D03*
X0162667Y0056256D03*
X0162667Y0026256D03*
M02*
